<?xml version="1.0" encoding="UTF-8"?>
<svg width="100px" height="24px" viewBox="0 0 100 24" version="1.1" xmlns="http://www.w3.org/2000/svg" xmlns:xlink="http://www.w3.org/1999/xlink">
    <!-- Generator: Sketch 51 (57462) - http://www.bohemiancoding.com/sketch -->
    <title>cabecera_interior_blanco</title>
    <desc>Created with Sketch.</desc>
    <defs></defs>
    <g id="Page-1" stroke="none" stroke-width="1" fill="none" fill-rule="evenodd">
        <g id="cabecera_interior_blanco" fill="#FFFFFF" fill-rule="nonzero">
            <path d="M0.53,22.985 L0.53,20.905 L2.01,20.905 C2.91,20.905 3.41,20.625 3.41,18.945 L3.41,8.035 C3.41,6.835 3.1,6.465 1.72,6.465 L0.53,6.465 L0.53,4.395 L17.98,4.395 L17.98,11.795 L16.02,11.795 C15.63,7.985 15.31,6.465 11.77,6.465 L7.11,6.465 L7.11,12.305 L8.51,12.305 C10.1,12.305 10.81,11.455 10.81,9.185 L10.81,8.825 L12.77,8.825 L12.77,18.185 L10.81,18.185 L10.81,17.515 C10.81,15.245 10.1,14.375 8.51,14.375 L7.11,14.375 L7.11,20.905 L12.4,20.905 C14.83,20.905 15.78,19.315 16.02,15.135 L17.98,15.135 L17.98,22.985 L0.53,22.985 Z" id="Shape"></path>
            <path d="M19.4,22.985 L19.4,20.905 L21.1,20.905 C21.84,20.905 22.34,20.625 22.34,19.675 L22.34,7.675 C22.34,6.835 22,6.465 20.94,6.465 L19.4,6.465 L19.4,4.395 L29.08,4.395 L29.08,6.465 L27.6,6.465 C26.44,6.465 26.04,6.745 26.04,7.735 L26.04,20.935 L30.35,20.935 C33.07,20.935 33.73,19.335 33.97,14.995 L35.93,14.995 L35.93,22.985 L19.4,22.985 Z" id="Shape"></path>
            <path d="M41.13,22.985 L41.13,20.905 L42.83,20.905 C43.43,20.905 43.96,20.685 43.96,19.955 L43.96,7.425 C43.96,6.695 43.43,6.465 42.83,6.465 L41.13,6.465 L41.13,4.395 L51.5,4.395 C55.46,4.395 57.73,6.325 57.73,9.495 C57.73,12.945 55.35,14.575 51.81,14.575 L47.66,14.575 L47.66,19.955 C47.66,20.685 48.32,20.905 48.93,20.905 L50.62,20.905 L50.62,22.985 L41.13,22.985 Z M47.66,12.495 L50.07,12.495 C52.55,12.495 53.87,11.685 53.87,9.525 C53.87,7.365 52.82,6.465 50.07,6.465 L47.66,6.465 L47.66,12.495 Z" id="Shape"></path>
            <path d="M54.77,22.985 L63.02,22.985 L63.02,20.905 L60.96,20.905 C60.46,20.905 60.11,20.795 60.11,20.405 C60.11,20.155 60.17,19.985 60.22,19.815 L61.09,17.015 L67.09,17.015 L67.96,19.815 C68.02,19.985 68.07,20.235 68.07,20.485 C68.07,20.765 67.86,20.905 67.25,20.905 L65.16,20.905 L65.16,22.985 L83.05,22.985 L83.05,20.905 L81.52,20.905 C80.62,20.905 80.22,20.435 80.22,19.535 L80.22,7.815 C80.22,6.745 81.04,6.465 81.89,6.465 L83.05,6.465 L83.05,4.395 L73.7,4.395 L73.7,6.465 L75.18,6.465 C76.21,6.465 76.53,7.025 76.53,7.735 L76.53,19.905 C76.53,20.625 76.1,20.905 75.02,20.905 L74.36,20.905 C72.96,20.905 72.06,20.715 71.59,19.395 L66.3,4.395 L62.6,4.395 L57.55,19.395 C57.1,20.715 56.17,20.905 54.77,20.905 L54.77,22.985 Z M66.32,14.935 L61.86,14.935 L63.97,8.175 L64.03,8.175 L66.32,14.935 Z" id="Shape"></path>
            <path d="M97.04,4.395 L98.57,4.395 L98.57,11.455 L96.67,11.455 C96.04,8.405 94.37,6.215 91.23,6.215 C88.77,6.215 87.76,6.885 87.76,8.745 C87.76,12.945 99.55,9.805 99.55,17.625 C99.55,22.085 96.27,23.545 92.57,23.545 C90.59,23.545 88.61,22.645 87.07,21.335 L86.5,22.985 L84.7,22.985 L84.7,15.385 L86.65,15.385 C87.02,19.145 89.19,21.165 92.94,21.165 C95.27,21.165 96.38,20.015 96.38,18.665 C96.38,13.875 84.59,17.485 84.59,9.465 C84.59,5.515 87.95,3.835 91.15,3.835 C93.16,3.835 94.85,4.815 96.17,5.795 L97.04,4.395 Z" id="Shape"></path>
            <polygon id="Shape" points="83.11 0.535 83.11 2.875 73.47 2.875"></polygon>
        </g>
    </g>
</svg>