<?xml version="1.0" encoding="UTF-8"?>
<svg width="69px" height="35px" viewBox="0 0 69 35" version="1.1" xmlns="http://www.w3.org/2000/svg" xmlns:xlink="http://www.w3.org/1999/xlink">
    <!-- Generator: Sketch 53.1 (72631) - https://sketchapp.com -->
    <title>Group 3</title>
    <desc>Created with Sketch.</desc>
    <defs>
        <polygon id="path-1" points="0 0 68.2051282 0 68.2051282 35 0 35"></polygon>
    </defs>
    <g id="Page-1" stroke="none" stroke-width="1" fill="none" fill-rule="evenodd">
        <g id="Cabecera-Vitaminado-THINK-BIG-1024" transform="translate(-923.000000, -21.000000)">
            <g id="Group-5" transform="translate(824.000000, 21.000000)">
                <g id="Group-6">
                    <g id="Group-3" transform="translate(99.000000, 0.000000)">
                        <mask id="mask-2" fill="white">
                            <use xlink:href="#path-1"></use>
                        </mask>
                        <g id="Clip-2"></g>
                        <path d="M53.7529939,34.5990312 L54.052449,33.4674392 C54.5894441,33.6723431 55.3464167,33.8238113 55.9624926,33.8238113 C56.5962302,33.8238113 57.3444712,33.6635041 57.3444712,33.0040952 C57.3444712,32.6387837 57.1155637,32.389283 56.4993885,32.1398828 L55.9272685,31.9081606 C54.9677816,31.5161312 54.4747423,30.9814726 54.4747423,30.1082203 C54.4747423,29.4577508 54.7478041,28.9053137 55.2847992,28.5310627 C55.7424159,28.2103479 56.3673227,28.0321619 57.1242953,28.0321619 C57.7757938,28.0321619 58.418263,28.1657512 59.0784932,28.388534 L58.6999573,29.4666902 C58.171793,29.3062826 57.6436287,29.2082501 57.1772804,29.2082501 C56.4729952,29.2082501 55.9184376,29.4310329 55.9184376,29.9300342 C55.9184376,30.2597889 56.1736393,30.4824712 56.8953877,30.7854076 L57.467607,31.0260693 C58.4007006,31.4180987 58.8143614,31.9615963 58.8143614,32.8436876 C58.8143614,33.4852176 58.5941855,34.0465941 58.0484587,34.4476634 C57.5380554,34.8219144 56.816307,35 55.971125,35 C55.2582075,35 54.492404,34.8752497 53.7529939,34.5990312 L53.7529939,34.5990312 Z M50.8392099,32.0775076 L50.5134606,29.7429087 L50.4958981,29.7429087 L49.4045438,32.0775076 L50.8392099,32.0775076 Z M49.9325097,28.1657512 L51.5961825,28.1657512 L52.8285327,34.8664107 L51.2792641,34.8664107 L51.0152316,33.1823817 L48.8675487,33.1823817 L48.0664218,34.8664107 L46.5525758,34.8664107 L49.9325097,28.1657512 Z M41.2269773,34.5990312 L41.5261348,33.4674392 C42.0632291,33.6723431 42.8201025,33.8238113 43.4361784,33.8238113 C44.069916,33.8238113 44.818157,33.6635041 44.818157,33.0040952 C44.818157,32.6387837 44.5893486,32.389283 43.9732727,32.1398828 L43.4010534,31.9081606 C42.4415666,31.5161312 41.9486265,30.9814726 41.9486265,30.1082203 C41.9486265,29.4577508 42.2214899,28.9053137 42.7583858,28.5310627 C43.2163001,28.2103479 43.8411076,28.0321619 44.5980803,28.0321619 C45.2495788,28.0321619 45.8919488,28.1657512 46.5521789,28.388534 L46.173643,29.4666902 C45.645578,29.3062826 45.1175129,29.2082501 44.6509661,29.2082501 C43.9467802,29.2082501 43.3922226,29.4310329 43.3922226,29.9300342 C43.3922226,30.2597889 43.6475235,30.4824712 44.3692719,30.7854076 L44.9412928,31.0260693 C45.8744855,31.4180987 46.2882456,31.9615963 46.2882456,32.8436876 C46.2882456,33.4852176 46.0680697,34.0465941 45.5223429,34.4476634 C45.0117411,34.8219144 44.2899927,35 43.44491,35 C42.7321909,35 41.9663874,34.8752497 41.2269773,34.5990312 L41.2269773,34.5990312 Z M36.7548954,28.1657512 L41.2262827,28.1657512 L40.9182944,29.2706253 L38.0663264,29.2706253 L37.7935622,30.8923795 L40.0644801,30.8923795 L39.8621643,32.0417499 L37.5909487,32.0417499 L37.3006221,33.7614362 L40.2933876,33.7614362 L40.1172667,34.8664107 L35.5930927,34.8664107 L36.7548954,28.1657512 Z M31.8604209,31.3290057 C32.3709235,31.3290057 32.7494594,31.2487516 33.0310544,30.9814726 C33.2688921,30.7498508 33.3920279,30.4200961 33.3920279,30.0904418 C33.3920279,29.8320017 33.3128479,29.6270978 33.1984437,29.5112869 C33.0664771,29.3775972 32.8287386,29.2706253 32.3887836,29.2706253 L31.6316126,29.2706253 L31.2795692,31.3290057 L31.8604209,31.3290057 Z M30.3200824,28.1657512 L32.5734377,28.1657512 C33.4007595,28.1657512 33.9642472,28.3439373 34.3250222,28.6559135 C34.6948265,28.9766283 34.8884106,29.4844686 34.8884106,30.0636235 C34.8884106,30.5537858 34.7476131,31.0081904 34.5274372,31.3200662 C34.3074597,31.6318416 33.884968,31.9705357 33.3393404,32.1843791 L34.3691764,34.8664107 L32.7494594,34.8664107 L31.9749243,32.4337793 L31.0859851,32.4337793 L30.6721257,34.8664107 L29.1581805,34.8664107 L30.3200824,28.1657512 Z M25.7513572,31.4091593 C26.1737497,31.4091593 26.5346239,31.3378447 26.8162189,31.1241018 C27.1156741,30.8923795 27.2563724,30.5181285 27.2563724,30.1438776 C27.2563724,29.8855379 27.1860232,29.6984124 27.0804499,29.5735617 C26.9308215,29.3953756 26.6579582,29.2706253 26.1649188,29.2706253 L25.5047879,29.2706253 L25.1439137,31.4091593 L25.7513572,31.4091593 Z M24.1932577,28.1657512 L26.3057164,28.1657512 C27.1946556,28.1657512 27.8285917,28.379695 28.2071276,28.7092488 C28.5063843,28.9766283 28.7528543,29.4044155 28.7528543,30.0904418 C28.7528543,30.8121255 28.479991,31.4180987 28.0837933,31.8101281 C27.5557283,32.3357468 26.7372374,32.5496906 25.716133,32.5496906 L24.9413002,32.5496906 L24.5454003,34.8664107 L23.0313558,34.8664107 L24.1932577,28.1657512 Z M16.0243235,28.1657512 L17.1861262,28.1657512 L18.6033289,31.8636643 L21.3849478,28.1657512 L22.6259305,28.1657512 L21.4640286,34.8664107 L20.08205,34.8664107 L20.7510118,30.9547547 L18.9643024,33.3337495 L17.8024005,33.3337495 L16.8340828,30.8300044 L16.1299961,34.8664107 L14.8623224,34.8664107 L16.0243235,28.1657512 Z M10.2583731,28.1657512 L14.7297604,28.1657512 L14.4217721,29.2706253 L11.5698041,29.2706253 L11.2970399,30.8923795 L13.5679578,30.8923795 L13.3655428,32.0417499 L11.0946249,32.0417499 L10.8040006,33.7614362 L13.7968654,33.7614362 L13.6208437,34.8664107 L9.09647121,34.8664107 L10.2583731,28.1657512 Z M5.27856684,3.62830601 C5.68022173,1.61643077 8.17240698,0.26396446 12.2346977,0.26396446 L19.4608145,0.26396446 C20.1928821,0.260750281 21.0636636,0.219669054 21.4627387,0 L21.5736701,0.143533186 C21.0719983,0.77110166 20.3920228,1.17217095 18.7942341,1.21747079 C18.7942341,1.21747079 17.357782,1.21747079 15.8713216,1.22480313 C14.8021933,1.96928737 14.2158843,3.47533118 12.8756786,7.06426349 C12.4632084,8.17767523 11.6186218,10.6832283 10.982999,12.2567699 C10.3133426,13.9239244 9.27219523,14.8242963 7.53152533,14.7147129 L7.42416599,14.524775 C8.04431003,14.1674989 8.5444934,13.2002319 9.32478344,11.0675236 C9.95484978,9.27843114 11.4938985,5.29204548 11.8178617,4.55127764 C12.5696747,2.8295825 13.5513875,1.91605253 14.7190443,1.22480313 L12.7071979,1.22480313 C9.07364991,1.22480313 6.74478579,2.49038616 6.68852632,4.72193046 C6.6797947,4.98730112 6.73754251,5.43758753 6.89054445,5.6882935 L6.78120065,5.783614 C5.61275006,5.65253576 5.07615182,4.60019342 5.27856684,3.62830601 L5.27856684,3.62830601 Z M34.1039532,17.988957 C51.0230702,17.988957 68.2051282,18.1965729 68.2051282,18.4487855 C68.2051282,18.6994915 51.0230702,18.920165 34.1039532,18.920165 C17.1888052,18.920165 0,18.6994915 0,18.4487855 C0,18.1965729 17.1888052,17.988957 34.1039532,17.988957 L34.1039532,17.988957 Z M50.1719349,1.99560346 C50.282767,1.46215017 50.7457418,1.0338608 51.2051445,1.03155061 C51.6745687,1.01989921 51.9782904,1.43201724 51.8658707,1.96667585 C51.7650601,2.48094451 51.297918,2.92118661 50.8337526,2.92731364 C50.3607563,2.9351482 50.0742002,2.5175058 50.1719349,1.99560346 L50.1719349,1.99560346 Z M27.532907,4.8064031 C27.7840405,4.8064031 27.8871333,4.98318296 27.8871333,5.20465999 C27.8783024,6.26031694 26.6010041,7.60826331 24.9501311,8.59140035 C25.366471,6.95889868 26.520435,4.79294373 27.532907,4.8064031 L27.532907,4.8064031 Z M22.706698,10.2922033 C22.6941959,11.3830154 23.2633393,12.2923267 24.7171554,12.2412012 C26.2764456,12.1972071 27.6950374,11.2852842 28.9236172,9.98042794 C28.6165219,10.8186256 28.350108,11.5394053 28.189962,11.9291245 C27.7367111,13.0780931 27.4007419,14.0116112 26.7003264,14.5529995 L26.7768274,14.6904057 C28.8330266,14.8097321 29.6025013,13.3495908 30.4462941,10.9671809 C31.2934604,8.58025117 32.0082633,6.50278658 32.565996,5.06243256 C33.4660483,5.06243256 34.7416597,5.09477524 35.4544781,4.9315552 C33.5920615,5.76864798 32.0082633,8.77752141 32.1949018,10.758862 C32.2788445,11.6389444 32.795995,12.2412012 33.8988592,12.2412012 C36.0361236,12.2412012 37.8363273,9.68100707 38.5231493,7.99145373 C38.915378,7.02237872 39.1754416,6.19814266 39.2182067,5.36838223 C39.7270225,5.27677813 40.2129177,5.18848865 40.4575025,5.14981805 C40.9235532,5.08684023 40.8341532,5.60984744 40.6853187,6.00539236 C39.8139419,8.47679477 38.29573,12.0655262 38.2915627,12.1213726 L39.9621811,12.1213726 C40.6853187,10.594537 41.1347991,9.61913412 41.7081098,8.5826618 C42.4064416,7.36267994 43.9599769,5.3536171 44.5759535,5.34889627 C44.7944427,5.34889627 44.8527858,5.48951661 44.7975186,5.70386218 C44.6903577,6.53261818 42.6893265,9.69898639 42.7231616,11.2623832 C42.7414186,12.2875055 43.2757347,12.9037239 44.2034702,13.1391625 L44.3975505,13.0285746 C44.2792766,12.8038834 44.2627064,12.5252543 44.2627064,12.1972071 C44.2461361,11.1549091 45.0837771,9.32875313 45.4073434,8.62002663 C45.9239978,7.50561046 46.8442916,5.8803407 46.7849562,4.98730112 C46.7537009,4.55127764 46.4316229,4.1647726 45.6920144,4.15784202 C44.3324602,4.14990702 42.9780656,5.48951661 41.839878,7.28443476 L41.8090197,7.27599754 C42.2649496,6.2355075 42.6217556,5.26593028 42.6092535,4.79294373 C42.5989343,4.36063664 42.3565324,4.19098825 41.8477166,4.19098825 C41.4908113,4.20263964 41.0006495,4.34135156 40.5188224,4.47072227 C39.8440065,4.64740168 39.136943,4.83141344 38.3607211,4.9970441 C37.8841528,5.06243256 37.7155729,5.14981805 37.7322424,5.32599525 C37.8299771,8.06708738 35.9867105,11.2905073 34.7579323,11.3021587 C34.2282797,11.3021587 34.1101051,10.9100288 34.1101051,10.3741649 C34.1039532,8.47679477 35.6432996,5.29204548 37.1495054,4.78641493 C37.2791899,4.74744301 37.4065923,4.72193046 37.4935117,4.69159664 L37.6850122,4.18054216 C37.3660101,4.24824081 36.607946,4.26029398 36.2067872,4.27154361 L32.9040489,4.27154361 C33.7772117,2.1667585 35.0019218,0.800531487 36.7940885,0.720779668 C37.9071726,0.682410405 38.6563066,1.10969534 38.7238775,1.75544402 C38.7691232,2.30366244 38.6197925,2.75113644 38.1858901,3.2043357 L38.3060492,3.32968868 C39.2889527,2.86061942 39.9663485,2.06249857 39.9735917,1.51659033 C39.9871853,0.674374957 38.9797737,0.154381041 37.3752378,0.170954152 C35.3395778,0.184112198 32.8250674,0.648661524 31.0738798,4.33170902 C30.5483946,4.41035597 30.0706356,4.6136528 29.6743388,5.04314748 L29.7459778,5.20465999 C30.0332285,5.10110315 30.3735636,5.08684023 30.7533894,5.08684023 C30.5078124,5.6882935 30.0228101,7.00028124 29.5343351,8.34802672 C28.0583922,10.3235416 26.5714357,11.2623832 25.4854394,11.2623832 C24.8908949,11.2821705 24.6504775,10.947695 24.6463101,10.3741649 C24.6400591,10.0083511 24.7263831,9.50563342 24.8004035,9.238957 C25.9625038,8.64694538 27.1302599,7.98432227 28.1878783,6.88708187 C28.764265,6.24896687 29.166416,5.60984744 29.1856653,4.95184471 C29.1935039,4.33170902 28.8157618,4.01169732 28.0421197,4.00245655 C26.9350881,3.98749053 25.60669,4.75507668 24.7364047,5.6882935 C23.6015907,6.94182336 22.7233675,8.71615068 22.706698,10.2922033 L22.706698,10.2922033 Z M60.4297126,5.06524497 C60.9160048,4.8341254 61.3224224,4.82197178 61.6638489,4.89017265 C61.535355,5.16347832 60.9488476,6.3606596 60.4937115,7.43640517 C59.7704747,9.12324655 58.6872567,10.8270628 57.6805397,11.0688294 C57.3355412,11.1706787 57.1322331,11.0201144 57.1364005,10.6711751 C57.1644806,9.17778715 58.7887619,5.84317676 60.4297126,5.06524497 L60.4297126,5.06524497 Z M46.1602479,11.0917304 C46.1602479,11.8396297 46.6298706,12.3009648 47.5243663,12.2735439 C48.4508119,12.2567699 49.3931332,11.700516 50.1719349,10.9386551 C50.3218609,11.7416977 50.8961639,12.3285867 52.0647137,12.2875055 C53.2832719,12.2412012 54.4486466,11.4693964 55.257116,10.5723391 L55.257116,10.8312814 C55.257116,11.6602383 55.6795085,12.2796709 56.6128997,12.2796709 C57.6221965,12.2796709 58.7804272,11.5140936 59.6971489,10.1937691 L59.727908,10.2108444 C59.6409886,10.5221176 59.5446431,11.0529593 59.5306526,11.4061173 C59.5160668,12.4011066 60.0977123,12.9753398 60.9082654,13.1404682 L61.1081006,13.0604151 C60.8094392,12.3376266 61.2235962,10.5416035 61.3957482,9.94487109 C61.9998181,7.97618638 62.960198,5.72626099 63.5160455,4.5612215 C63.2631259,4.34135156 62.6679861,4.19259533 62.0358361,4.16236196 C59.9458018,4.08753185 57.8366175,4.95887573 56.299851,7.71151881 C56.0375053,8.19424834 55.7472779,8.74537962 55.533353,9.32875313 C55.3164514,9.62224786 55.0869485,9.88510745 54.9903052,9.98042794 C54.4350531,10.5221176 53.645833,11.2160789 52.8435154,11.2260228 C52.3841127,11.236268 52.1354598,10.9100288 52.1448859,10.3345903 C52.1552051,8.13348027 54.0739804,4.78641493 55.3761837,4.77777682 C55.7356688,4.77777682 55.8886707,4.93607514 55.8886707,5.24483722 C55.8886707,5.60984744 55.6446812,6.11608065 55.2903557,6.43960787 L55.4444491,6.5781189 C56.3180088,6.23972611 57.1322331,5.62431125 57.1364005,4.96620807 C57.1364005,4.21871054 56.2847691,4.07829109 55.5266058,4.08753185 C54.5089742,4.09988636 53.243682,4.60290539 52.2259512,5.72867163 C50.9523241,7.13567854 50.2937808,8.82703986 50.1636002,10.0336628 C49.5819547,10.721698 48.9296623,11.1888589 48.4962561,11.1925752 C48.2511752,11.2041262 48.0752527,11.0688294 48.0752527,10.8093848 C48.0752527,10.5789684 48.2031512,10.1111044 48.4300743,9.50563342 C48.9934628,8.08285695 49.8077863,6.31535976 50.8092445,4.21288484 C50.8092445,4.21288484 49.2837894,4.47072227 49.0647049,4.5365125 C48.8344082,4.5947695 48.6558067,4.74744301 48.5559884,4.95887573 C47.9014139,6.3606596 47.1283672,7.97618638 46.6440595,9.18331152 C46.3468865,9.94225957 46.1602479,10.6606286 46.1602479,11.0917304 L46.1602479,11.0917304 Z M18.4904131,4.8064031 C18.7434319,4.8064031 18.8318396,4.98318296 18.8318396,5.20465999 C18.8318396,6.26031694 17.5447183,7.60826331 15.9067442,8.59140035 C16.31723,6.95889868 17.4781396,4.79294373 18.4904131,4.8064031 L18.4904131,4.8064031 Z M20.0069382,8.40969879 C18.9853377,9.90800847 17.5622807,11.2623832 16.3385629,11.2623832 C15.817245,11.2821705 15.5893297,10.9795354 15.5981605,10.3741649 C15.5981605,10.0083511 15.6821032,9.49880329 15.7532462,9.238957 C16.9108814,8.64694538 18.0887582,7.98432227 19.1365536,6.88708187 C19.7235571,6.24896687 20.1138014,5.60984744 20.1334475,4.95184471 C20.143866,4.33170902 19.7583844,4.01169732 18.9940693,4.00245655 C17.8849541,3.98749053 16.5540754,4.75507668 15.6908349,5.6882935 C14.5561201,6.94182336 13.6811713,8.71615068 13.6570601,10.2922033 C13.643665,11.4061173 14.1679596,12.2923267 15.5893297,12.2412012 C17.1049617,12.1972071 18.6008484,11.0116772 19.3681402,10.1534914 C19.2775495,10.5234233 19.2157336,10.8673405 19.2157336,11.1512931 C19.2157336,12.1439723 19.7016288,12.8465717 20.6641916,13.1438833 L20.8577758,13.0545894 C20.7681774,12.7863059 20.7473405,12.5047639 20.7681774,12.1932898 C20.834756,11.2260228 21.2161694,10.1406347 21.7728107,8.71062631 C22.8322152,6.00539236 24.3758281,2.91013787 25.056399,1.08659343 L23.4361859,1.39756526 C23.1843578,1.45049877 23.0251048,1.64646326 22.9408644,1.82997279 C22.1605744,3.51088803 21.3577607,5.30259201 20.3551118,7.63749225 C20.2397154,7.88588803 20.1334475,8.14764274 20.0069382,8.40969879 L20.0069382,8.40969879 Z" id="Fill-1" fill="#FEFEFE" mask="url(#mask-2)"></path>
                    </g>
                </g>
            </g>
        </g>
    </g>
</svg>