<?xml version="1.0" encoding="UTF-8"?>
<svg width="197px" height="15px" viewBox="0 0 197 15" version="1.1" xmlns="http://www.w3.org/2000/svg" xmlns:xlink="http://www.w3.org/1999/xlink">
    <!-- Generator: Sketch 54.1 (76490) - https://sketchapp.com -->
    <title>#THINKBIGEMPRESAS</title>
    <desc>Created with Sketch.</desc>
    <g id="Page-1" stroke="none" stroke-width="1" fill="none" fill-rule="evenodd">
        <g id="Vitaminado-THINK-BIG" transform="translate(-629.000000, -34.000000)" fill-rule="nonzero">
            <g id="#THINKBIGEMPRESAS" transform="translate(629.720000, 34.060000)">
                <path d="M1.54,9.68 L0.18,9.68 L0.38,8.5 L1.96,8.5 L2.98,5.72 L0.86,5.72 L1.06,4.54 L3.42,4.54 L4.96,0.26 L6.26,0.26 L4.7,4.54 L7.3,4.54 L8.84,0.26 L10.14,0.26 L8.58,4.54 L9.96,4.54 L9.76,5.72 L8.16,5.72 L7.14,8.5 L9.3,8.5 L9.1,9.68 L6.72,9.68 L5.18,13.94 L3.88,13.94 L5.42,9.68 L2.84,9.68 L1.3,13.94 L-1.13686838e-12,13.94 L1.54,9.68 Z M5.84,8.5 L6.86,5.72 L4.28,5.72 L3.26,8.5 L5.84,8.5 Z M16.75,1.66 L12.49,1.66 L12.75,0.26 L23.13,0.26 L22.73,1.66 L18.51,1.66 L16.35,13.94 L14.59,13.94 L16.75,1.66 Z M25.9,0.26 L27.66,0.26 L26.6,6.3 L32.76,6.3 L33.82,0.26 L35.58,0.26 L33.16,13.94 L31.4,13.94 L32.5,7.74 L26.34,7.74 L25.24,13.94 L23.48,13.94 L25.9,0.26 Z M39.5699999,0.26 L41.3299999,0.26 L38.9099999,13.94 L37.1499999,13.94 L39.5699999,0.26 Z M45.3199999,0.26 L46.6399999,0.26 L51.9399999,11 L53.8399999,0.26 L55.4399999,0.26 L53.0199999,13.94 L51.6999999,13.94 L46.3999999,3.2 L44.4999999,13.94 L42.8999999,13.94 L45.3199999,0.26 Z M59.3899999,0.26 L61.1499999,0.26 L59.8899999,7.32 L66.6899999,0.26 L68.7699999,0.26 L63.1499999,5.96 L66.5499999,13.94 L64.6499999,13.94 L61.9099999,7.2 L59.4699999,9.7 L58.7299999,13.94 L56.9699999,13.94 L59.3899999,0.26 Z M71.7799999,0.26 L75.0599999,0.26 C75.9000041,0.26 76.5966638,0.3399992 77.1499999,0.5 C77.703336,0.6600008 78.1466649,0.9133316 78.4799999,1.26 C78.9733357,1.7800026 79.2199999,2.4599958 79.2199999,3.3 C79.2199999,4.0600038 79.0000021,4.7466636 78.5599999,5.36 C78.1199977,5.9733364 77.5533367,6.4266652 76.8599999,6.72 C77.5133365,6.8933342 78.0399979,7.2199976 78.4399999,7.7 C78.8400019,8.1800024 79.0399999,8.7666632 79.0399999,9.46 C79.0399999,10.2333372 78.8700016,10.9433301 78.5299999,11.59 C78.1899982,12.2366699 77.7000031,12.7466648 77.0599999,13.12 C76.1533287,13.6666694 74.8866747,13.94 73.2599999,13.94 L69.3599999,13.94 L71.7799999,0.26 Z M74.0999999,6.18 C75.1933387,6.18 76.0266637,5.9266692 76.5999999,5.42 C77.1733361,4.9133308 77.4599999,4.226671 77.4599999,3.36 C77.4599999,2.8133306 77.3000015,2.4000014 76.9799999,2.12 C76.7799989,1.9466658 76.5266681,1.826667 76.2199999,1.76 C75.9133317,1.693333 75.5133357,1.66 75.0199999,1.66 L73.2999999,1.66 L72.4999999,6.18 L74.0999999,6.18 Z M72.9399999,12.54 C73.7000037,12.54 74.3266641,12.4866672 74.8199999,12.38 C75.3133357,12.2733328 75.7266649,12.1000012 76.0599999,11.86 C76.4333351,11.593332 76.7166656,11.2566687 76.9099999,10.85 C77.1033342,10.4433313 77.1999999,10.0000024 77.1999999,9.52 C77.1999999,9.186665 77.1366672,8.8933346 77.0099999,8.64 C76.8833326,8.3866654 76.7066677,8.1866674 76.4799999,8.04 C76.2133319,7.8666658 75.8866685,7.746667 75.4999999,7.68 C75.1133313,7.613333 74.6133363,7.58 73.9999999,7.58 L72.2399999,7.58 L71.3599999,12.54 L72.9399999,12.54 Z M84.1699999,0.26 L85.9299999,0.26 L83.5099999,13.94 L81.7499999,13.94 L84.1699999,0.26 Z M93.1399998,14.22 C92.2999956,14.22 91.5533364,14.1033345 90.8999998,13.87 C90.2466632,13.6366655 89.700002,13.3066688 89.2599998,12.88 C88.8199976,12.4533312 88.480001,11.8966701 88.2399998,11.21 C87.9999986,10.5233299 87.8799998,9.746671 87.8799998,8.88 C87.8799998,7.5599934 88.1133308,6.2900061 88.5799998,5.07 C89.0466688,3.8499939 89.7133288,2.806671 90.5799998,1.94 C91.8733396,0.6466602 93.5066566,5.82645043e-13 95.4799998,5.82645043e-13 C96.053336,5.82645043e-13 96.6299969,0.0499995 97.2099998,0.15 C97.7900027,0.2500005 98.293331,0.3866658 98.7199998,0.56 L98.2599998,1.88 C97.3799954,1.5999986 96.486671,1.46 95.5799998,1.46 C94.0333254,1.46 92.7866712,1.9733282 91.8399998,3 C91.1866632,3.6933368 90.6700017,4.5633281 90.2899998,5.61 C89.9099979,6.6566719 89.7199998,7.7399944 89.7199998,8.86 C89.7199998,10.1533398 90.0199968,11.1266634 90.6199998,11.78 C91.2200028,12.4333366 92.1066606,12.76 93.2799998,12.76 C93.586668,12.76 93.9333312,12.7400002 94.3199998,12.7 C94.7066684,12.6599998 95.0399984,12.606667 95.3199998,12.54 L96.0399998,8.4 L93.9199998,8.4 L94.1599998,7.02 L97.9799998,7.02 L96.8199998,13.66 C96.3133306,13.8200008 95.7266698,13.9533328 95.0599998,14.06 C94.3933298,14.1666672 93.7533362,14.22 93.1399998,14.22 Z" id="#THINKBIG" fill="#FFFFFF"></path>
                <path d="M103.03,0.26 L110.69,0.26 L110.29,1.66 L104.55,1.66 L103.73,6.28 L108.41,6.28 L108.15,7.74 L103.47,7.74 L102.61,12.54 L108.69,12.54 L108.43,13.94 L100.61,13.94 L103.03,0.26 Z M114.1,0.26 L115.44,0.26 L118.62,9.38 L124.9,0.26 L126.44,0.26 L124.02,13.94 L122.34,13.94 L124.12,3.88 L119.1,11.08 L117.64,11.08 L115.08,3.84 L113.3,13.94 L111.68,13.94 L114.1,0.26 Z M130.39,0.26 L134.01,0.26 C135.623341,0.26 136.796663,0.5866634 137.53,1.24 C138.170003,1.8133362 138.49,2.6199948 138.49,3.66 C138.49,5.1533408 138.030004,6.3733286 137.11,7.32 C136.629997,7.8000024 136.030003,8.173332 135.31,8.44 C134.589996,8.706668 133.796671,8.84 132.93,8.84 L130.63,8.84 L129.73,13.94 L127.97,13.94 L130.39,0.26 Z M132.65,7.44 C134.02334,7.44 135.049996,7.0800036 135.73,6.36 C136.036668,6.0399984 136.273332,5.6533356 136.44,5.2 C136.606667,4.7466644 136.69,4.2666692 136.69,3.76 C136.69,3.0799966 136.483335,2.5666684 136.07,2.22 C135.643331,1.8466648 134.87,1.66 133.75,1.66 L131.91,1.66 L130.87,7.44 L132.65,7.44 Z M142.22,0.28 L145.92,0.28 C147.573341,0.28 148.766663,0.6399964 149.5,1.36 C150.073336,1.9333362 150.36,2.7066618 150.36,3.68 C150.36,4.3333366 150.243334,4.9666636 150.01,5.58 C149.776665,6.1933364 149.433335,6.7199978 148.98,7.16 C148.39333,7.7200028 147.70667,8.1266654 146.92,8.38 L148.86,13.96 L147.02,13.96 L145.34,8.68 C145.126665,8.7066668 144.786669,8.72 144.32,8.72 L142.48,8.72 L141.56,13.96 L139.8,13.96 L142.22,0.28 Z M144.66,7.3 C145.913339,7.3 146.87333,6.96667 147.54,6.3 C147.860001,5.9799984 148.109999,5.5966689 148.29,5.15 C148.470001,4.7033311 148.56,4.2333358 148.56,3.74 C148.56,3.1533304 148.406668,2.693335 148.1,2.36 C147.873332,2.1199988 147.566668,1.9466672 147.18,1.84 C146.793331,1.7333328 146.28667,1.68 145.66,1.68 L143.74,1.68 L142.74,7.3 L144.66,7.3 Z M154.53,0.26 L162.19,0.26 L161.79,1.66 L156.05,1.66 L155.23,6.28 L159.91,6.28 L159.65,7.74 L154.97,7.74 L154.11,12.54 L160.19,12.54 L159.93,13.94 L152.11,13.94 L154.53,0.26 Z M166.28,14.22 C165.719997,14.22 165.11667,14.1666672 164.47,14.06 C163.82333,13.9533328 163.246669,13.8133342 162.74,13.64 L163.12,12.24 C164.240005,12.5866684 165.279995,12.76 166.24,12.76 C167.520006,12.76 168.49333,12.5133358 169.16,12.02 C169.760003,11.5666644 170.06,10.9866702 170.06,10.28 C170.06,9.8666646 169.946668,9.5066682 169.72,9.2 C169.493332,8.8933318 169.210001,8.6300011 168.87,8.41 C168.529998,8.1899989 168.073336,7.9333348 167.5,7.64 C166.779996,7.2666648 166.206669,6.9333348 165.78,6.64 C165.353331,6.3466652 164.990001,5.966669 164.69,5.5 C164.389998,5.033331 164.24,4.46667 164.24,3.8 C164.24,2.6933278 164.633329,1.8000034 165.42,1.12 C166.286671,0.3733296 167.526658,5.82645043e-13 169.14,5.82645043e-13 C169.673336,5.82645043e-13 170.259997,0.0566661 170.9,0.17 C171.540003,0.2833339 172.113331,0.439999 172.62,0.64 L172.18,1.94 C171.726664,1.7933326 171.210003,1.6766671 170.63,1.59 C170.049997,1.5033329 169.533335,1.46 169.08,1.46 C167.959994,1.46 167.140002,1.6733312 166.62,2.1 C166.153331,2.4866686 165.92,2.9866636 165.92,3.6 C165.92,4.000002 166.036665,4.3533318 166.27,4.66 C166.503334,4.9666682 166.789998,5.2333322 167.13,5.46 C167.470001,5.6866678 167.93333,5.9599984 168.52,6.28 C169.213337,6.6400018 169.776664,6.9699985 170.21,7.27 C170.643335,7.5700015 171.009998,7.9433311 171.31,8.39 C171.610001,8.8366689 171.76,9.3733302 171.76,10 C171.76,11.2133394 171.333337,12.1933296 170.48,12.94 C170.013331,13.3533354 169.423337,13.6699989 168.71,13.89 C167.996663,14.1100011 167.186671,14.22 166.28,14.22 Z M179.71,0.26 L181.67,0.26 L183.87,13.94 L182.13,13.94 L181.59,10.3 L176.57,10.3 L174.85,13.94 L173.11,13.94 L179.71,0.26 Z M181.39,8.9 L180.41,2.22 L180.39,2.22 L177.23,8.9 L181.39,8.9 Z M189.76,14.22 C189.199997,14.22 188.59667,14.1666672 187.95,14.06 C187.30333,13.9533328 186.726669,13.8133342 186.22,13.64 L186.6,12.24 C187.720005,12.5866684 188.759995,12.76 189.72,12.76 C191.000006,12.76 191.97333,12.5133358 192.64,12.02 C193.240003,11.5666644 193.54,10.9866702 193.54,10.28 C193.54,9.8666646 193.426667,9.5066682 193.2,9.2 C192.973332,8.8933318 192.690001,8.6300011 192.35,8.41 C192.009998,8.1899989 191.553336,7.9333348 190.98,7.64 C190.259996,7.2666648 189.686668,6.9333348 189.26,6.64 C188.833331,6.3466652 188.470001,5.966669 188.17,5.5 C187.869998,5.033331 187.72,4.46667 187.72,3.8 C187.72,2.6933278 188.113329,1.8000034 188.9,1.12 C189.766671,0.3733296 191.006658,5.82645043e-13 192.62,5.82645043e-13 C193.153336,5.82645043e-13 193.739996,0.0566661 194.38,0.17 C195.020003,0.2833339 195.59333,0.439999 196.1,0.64 L195.66,1.94 C195.206664,1.7933326 194.690003,1.6766671 194.11,1.59 C193.529997,1.5033329 193.013335,1.46 192.56,1.46 C191.439994,1.46 190.620002,1.6733312 190.1,2.1 C189.633331,2.4866686 189.4,2.9866636 189.4,3.6 C189.4,4.000002 189.516665,4.3533318 189.75,4.66 C189.983334,4.9666682 190.269998,5.2333322 190.61,5.46 C190.950001,5.6866678 191.41333,5.9599984 192,6.28 C192.693336,6.6400018 193.256664,6.9699985 193.69,7.27 C194.123335,7.5700015 194.489998,7.9433311 194.79,8.39 C195.090001,8.8366689 195.24,9.3733302 195.24,10 C195.24,11.2133394 194.813337,12.1933296 193.96,12.94 C193.493331,13.3533354 192.903337,13.6699989 192.19,13.89 C191.476663,14.1100011 190.666671,14.22 189.76,14.22 Z" id="EMPRESAS" fill="#00FF99"></path>
            </g>
        </g>
    </g>
</svg>